<svg xmlns="http://www.w3.org/2000/svg" width="48" height="48" viewBox="0 0 48 48" fill="none"><path d="M10.5 10.5V20.8305C10.5 28.2744 16.454 34.4444 23.8976 34.4996C25.679 34.5131 27.4455 34.1739 29.0952 33.5016C30.7449 32.8292 32.2452 31.837 33.5097 30.5821C34.7741 29.3272 35.7777 27.8344 36.4626 26.1899C37.1474 24.5453 37.5 22.7815 37.5 21V10.5C37.5 10.1022 37.342 9.72064 37.0607 9.43934C36.7794 9.15804 36.3978 9 36 9H12C11.6022 9 11.2206 9.15804 10.9393 9.43934C10.658 9.72064 10.5 10.1022 10.5 10.5Z" stroke="white" stroke-width="2" stroke-linecap="round" stroke-linejoin="round"></path><path d="M18 42H30" stroke="white" stroke-width="2" stroke-linecap="round" stroke-linejoin="round"></path><path d="M24 34.5V42" stroke="white" stroke-width="2" stroke-linecap="round" stroke-linejoin="round"></path><path d="M37.1655 24H39.0001C40.5914 24 42.1175 23.3679 43.2427 22.2426C44.368 21.1174 45.0001 19.5913 45.0001 18V15C45.0001 14.6022 44.8421 14.2206 44.5608 13.9393C44.2795 13.658 43.8979 13.5 43.5001 13.5H37.5001" stroke="white" stroke-width="2" stroke-linecap="round" stroke-linejoin="round"></path><path d="M10.8682 24H8.97607C7.38478 24 5.85865 23.3679 4.73343 22.2426C3.60822 21.1174 2.97607 19.5913 2.97607 18V15C2.97607 14.6022 3.13411 14.2206 3.41541 13.9393C3.69672 13.658 4.07825 13.5 4.47607 13.5H10.4761" stroke="white" stroke-width="2" stroke-linecap="round" stroke-linejoin="round"></path></svg>